<svg width="900" height="1080" viewBox="0 0 900 1080" fill="none" xmlns="http://www.w3.org/2000/svg">
<path d="M630.004 179.999C679.712 179.999 720 139.701 720 90.0036C720 40.2959 679.702 0.0078125 630.004 0.0078125C580.296 0.0078125 540.008 40.3059 540.008 90.0036C539.998 139.701 580.296 179.999 630.004 179.999Z" fill="#FE5154"/>
<path d="M629.999 130.181C652.198 130.181 670.188 112.192 670.188 89.9928C670.188 67.7939 652.198 49.8047 629.999 49.8047C607.8 49.8047 589.811 67.7939 589.811 89.9928C589.811 112.192 607.8 130.181 629.999 130.181Z" fill="#FFD150"/>
<path d="M359.99 0H539.992V180.002H359.99V0Z" fill="#00315D"/>
<path d="M719.998 180.002H900C900 80.5863 819.414 0 719.998 0V180.002Z" fill="#EBE6DA"/>
<path d="M359.992 180.002V0H179.99C180 99.4154 260.587 180.002 359.992 180.002Z" fill="#FE5154"/>
<path d="M-0.00195312 180.002C99.4136 180.002 180 99.4154 180 0H-0.00195312V180.002Z" fill="#EBE6DA"/>
<path d="M719.998 360.002C819.414 360.002 900 279.405 900 180H719.998V360.002Z" fill="#FE5154"/>
<path d="M719.998 282.345C776.526 282.345 822.344 236.517 822.344 180H719.998V282.345Z" fill="#FFD150"/>
<path d="M539.998 180H720V360.002H539.998V180Z" fill="#00315D"/>
<path d="M591.487 231.477H668.523V308.513H591.487V231.477Z" fill="#EBE6DA"/>
<path d="M359.99 180H539.992V360.002H359.99V180Z" fill="#EBE6DA"/>
<path d="M360 360.002H539.992C539.992 260.586 459.406 180 359.99 180V360.002H360Z" fill="#FE5154"/>
<path d="M-0.00195312 360.002H180C180 260.586 99.4136 180 -0.00195312 180V360.002Z" fill="#FE5154"/>
<path d="M180.006 360.002H360.008V180C260.592 180 180.006 260.586 180.006 360.002Z" fill="#FFD150"/>
<path d="M539.998 360H720V540.002H539.998V360Z" fill="#FFD150"/>
<path d="M359.99 360H539.992V540.002H359.99V360Z" fill="#FAFBFD"/>
<path d="M810.004 539.992C859.712 539.992 900 499.694 900 449.996C900 400.288 859.702 360 810.004 360C760.296 360 720.008 400.298 720.008 449.996C719.998 499.704 760.296 539.992 810.004 539.992Z" fill="#00315D"/>
<path d="M810.006 490.152C832.185 490.152 850.164 472.173 850.164 449.994C850.164 427.815 832.185 409.836 810.006 409.836C787.827 409.836 769.848 427.815 769.848 449.994C769.848 472.173 787.827 490.152 810.006 490.152Z" fill="#FE5154"/>
<path d="M180.006 360H360.008V540.002H180.006V360Z" fill="#FAFBFD"/>
<path d="M360.006 539.994C459.421 539.994 540.008 459.408 540.008 359.992H360.006V539.994Z" fill="#00315D"/>
<path d="M359.992 539.994V359.992H179.99C180 459.408 260.587 539.994 359.992 539.994Z" fill="#FE5154"/>
<path d="M360.001 360.001H449.117C449.117 310.783 409.219 270.875 359.991 270.875V360.001H360.001Z" fill="#FAFBFD"/>
<path d="M270.882 360.001H360.008V270.875C310.78 270.875 270.882 310.773 270.882 360.001Z" fill="#FE5154"/>
<path d="M360.007 449.126C409.225 449.126 449.133 409.228 449.133 360H360.007V449.126Z" fill="#FFD150"/>
<path d="M359.992 449.126V360H270.866C270.876 409.218 310.774 449.126 359.992 449.126Z" fill="#00315D"/>
<path d="M-0.00195312 539.992H180V360C80.5844 360 -0.00195312 440.586 -0.00195312 539.992Z" fill="#00315D"/>
<path d="M719.998 719.992C819.414 719.992 900 639.405 900 540H719.998V719.992Z" fill="#EBE6DA"/>
<path d="M539.998 539.992H720V719.994H539.998V539.992Z" fill="#00315D"/>
<path d="M539.998 719.994H720L539.998 539.992V719.994Z" fill="#00315D"/>
<path d="M360 719.994H539.992V539.992C440.587 539.992 360 620.588 360 719.994Z" fill="#FE5154"/>
<path d="M-0.00195312 719.994H180V539.992C80.5844 539.992 -0.00195312 620.588 -0.00195312 719.994Z" fill="#FFD150"/>
<path d="M180.006 719.994H360.008C360.008 620.578 279.421 539.992 180.006 539.992V719.994Z" fill="#00315D"/>
<path d="M180.006 719.994H360.008C360.008 620.578 279.421 539.992 180.006 539.992V719.994Z" fill="#00315D"/>
<path d="M66.945 719.992H180V606.938C117.563 606.938 66.945 657.555 66.945 719.992Z" fill="#EBE6DA"/>
<path d="M180 719.992H293.055C293.055 657.555 242.437 606.938 180 606.938V719.992Z" fill="#FE5154"/>
<path d="M719.998 900C819.414 900 900 980.586 900 1080H719.998V900Z" fill="#FE5154"/>
<path d="M720 900V1080H539.998C539.998 980.586 620.594 900 720 900Z" fill="#FFD150"/>
<path d="M720 975.984C777.448 975.984 824.016 1022.55 824.016 1080H720V975.984Z" fill="#EBE6DA"/>
<path d="M720 975.984V1080H615.985C615.985 1022.55 662.553 975.984 720 975.984Z" fill="#FAFBFD"/>
<path d="M539.992 900C539.992 999.415 459.406 1080 359.99 1080C360 980.586 440.587 900 539.992 900Z" fill="#00315D"/>
<path d="M-0.00195312 900H180V1080H-0.00195312V900Z" fill="#00315D"/>
<path d="M180.006 900C279.421 900 360.008 980.586 360.008 1080H180.006V900Z" fill="#FE5154"/>
<path d="M720 720C720 819.415 639.414 900.002 539.998 900.002C539.998 800.596 620.594 720 720 720Z" fill="#FE5154"/>
<path d="M360.006 720C459.421 720 540.008 800.586 540.008 900.002C440.592 900.002 360.006 819.415 360.006 720Z" fill="#FFD150"/>
<path d="M180.006 720H360.008V900.002H180.006V720Z" fill="#FAFBFD"/>
<path d="M225.002 720C249.851 720 270 740.149 270 764.998C270 789.847 249.851 809.996 225.002 809.996C200.153 809.996 180.004 789.847 180.004 764.998C180.004 740.149 200.143 720 225.002 720Z" fill="#FFD150"/>
<path d="M224.999 754.352C230.879 754.352 235.648 759.121 235.648 765.001C235.648 770.881 230.879 775.651 224.999 775.651C219.119 775.651 214.349 770.881 214.349 765.001C214.349 759.121 219.119 754.352 224.999 754.352Z" fill="#FAFBFD"/>
<path d="M314.994 720C339.843 720 359.992 740.149 359.992 764.998C359.992 789.847 339.843 809.996 314.994 809.996C290.145 809.996 269.996 789.847 269.996 764.998C269.996 740.149 290.145 720 314.994 720Z" fill="#EBE6DA"/>
<path d="M314.999 754.352C320.879 754.352 325.648 759.121 325.648 765.001C325.648 770.881 320.879 775.651 314.999 775.651C309.119 775.651 304.349 770.881 304.349 765.001C304.349 759.121 309.119 754.352 314.999 754.352Z" fill="#00315D"/>
<path d="M225.002 810.008C249.851 810.008 270 830.157 270 855.006C270 879.855 249.851 900.004 225.002 900.004C200.153 900.004 180.004 879.855 180.004 855.006C180.004 830.157 200.143 810.008 225.002 810.008Z" fill="#00315D"/>
<path d="M224.999 844.352C230.879 844.352 235.648 849.121 235.648 855.001C235.648 860.881 230.879 865.651 224.999 865.651C219.119 865.651 214.349 860.881 214.349 855.001C214.349 849.121 219.119 844.352 224.999 844.352Z" fill="#FFD150"/>
<path d="M314.994 810.008C339.843 810.008 359.992 830.157 359.992 855.006C359.992 879.855 339.843 900.004 314.994 900.004C290.145 900.004 269.996 879.855 269.996 855.006C269.996 830.157 290.145 810.008 314.994 810.008Z" fill="#FE5154"/>
<path d="M314.999 844.352C320.879 844.352 325.648 849.121 325.648 855.001C325.648 860.881 320.879 865.651 314.999 865.651C309.119 865.651 304.349 860.881 304.349 855.001C304.349 849.121 309.119 844.352 314.999 844.352Z" fill="#EBE6DA"/>
<path d="M0.00585938 720H180.008V900.002H0.00585938V720Z" fill="#FE5154"/>
<path d="M51.6593 771.664H128.336V848.34H51.6593V771.664Z" fill="#00315D"/>
<path d="M155.257 964.666C152.957 964.666 150.717 963.736 149.087 962.116C147.467 960.496 146.537 958.246 146.537 955.946C146.537 953.646 147.467 951.406 149.087 949.776C150.707 948.157 152.957 947.227 155.257 947.227C157.557 947.227 159.797 948.157 161.427 949.776C163.047 951.396 163.977 953.646 163.977 955.946C163.977 958.246 163.047 960.486 161.427 962.116C159.797 963.736 157.557 964.666 155.257 964.666Z" fill="#FFD150"/>
<path d="M65.3585 964.666H65.3186C60.4988 964.666 56.5989 960.766 56.5989 955.946C56.5989 951.126 60.4988 947.227 65.3186 947.227H65.3585C70.1783 947.227 74.0781 951.126 74.0781 955.946C74.0781 960.766 70.1783 964.666 65.3585 964.666Z" fill="#FFD150"/>
<path d="M110.319 964.666H110.279C105.46 964.666 101.56 960.766 101.56 955.946C101.56 951.126 105.46 947.227 110.279 947.227H110.319C115.139 947.227 119.039 951.126 119.039 955.946C119.039 960.766 115.139 964.666 110.319 964.666Z" fill="#FFD150"/>
<path d="M20.382 964.666C18.0821 964.666 15.8421 963.736 14.2122 962.116C12.5923 960.496 11.6623 958.246 11.6623 955.946C11.6623 953.646 12.5923 951.406 14.2122 949.776C15.8321 948.157 18.0821 947.227 20.382 947.227C22.6819 947.227 24.9218 948.157 26.5517 949.776C28.1716 951.396 29.1016 953.646 29.1016 955.946C29.1016 958.246 28.1716 960.486 26.5517 962.116C24.9218 963.736 22.6819 964.666 20.382 964.666Z" fill="#FFD150"/>
<path d="M155.257 928.843C152.957 928.843 150.717 927.913 149.087 926.293C147.467 924.673 146.537 922.424 146.537 920.134C146.537 917.834 147.467 915.594 149.087 913.964C150.707 912.344 152.957 911.414 155.257 911.414C157.557 911.414 159.797 912.344 161.427 913.964C163.047 915.584 163.977 917.834 163.977 920.134C163.977 922.434 163.047 924.673 161.427 926.293C159.797 927.913 157.557 928.843 155.257 928.843Z" fill="#FFD150"/>
<path d="M65.3585 928.845H65.3186C60.4988 928.845 56.5989 924.946 56.5989 920.126C56.5989 915.306 60.4988 911.406 65.3186 911.406H65.3585C70.1783 911.406 74.0781 915.306 74.0781 920.126C74.0781 924.946 70.1783 928.845 65.3585 928.845Z" fill="#FFD150"/>
<path d="M110.319 928.845H110.279C105.46 928.845 101.56 924.946 101.56 920.126C101.56 915.306 105.46 911.406 110.279 911.406H110.319C115.139 911.406 119.039 915.306 119.039 920.126C119.039 924.946 115.139 928.845 110.319 928.845Z" fill="#FFD150"/>
<path d="M20.382 928.843C18.0821 928.843 15.8421 927.913 14.2122 926.293C12.5923 924.673 11.6623 922.424 11.6623 920.134C11.6623 917.834 12.5923 915.594 14.2122 913.964C15.8321 912.344 18.0821 911.414 20.382 911.414C22.6819 911.414 24.9218 912.344 26.5517 913.964C28.1716 915.584 29.1016 917.834 29.1016 920.134C29.1016 922.434 28.1716 924.673 26.5517 926.293C24.9218 927.913 22.6819 928.843 20.382 928.843Z" fill="#FFD150"/>
<path d="M155.257 1000.49C152.957 1000.49 150.717 999.556 149.087 997.936C147.467 996.316 146.537 994.066 146.537 991.766C146.537 989.467 147.467 987.227 149.087 985.597C150.707 983.977 152.957 983.047 155.257 983.047C157.557 983.047 159.797 983.977 161.427 985.597C163.047 987.217 163.977 989.467 163.977 991.766C163.977 994.066 163.047 996.306 161.427 997.936C159.797 999.556 157.557 1000.49 155.257 1000.49Z" fill="#FFD150"/>
<path d="M65.3585 1000.49H65.3186C60.4988 1000.49 56.5989 996.586 56.5989 991.766C56.5989 986.947 60.4988 983.047 65.3186 983.047H65.3585C70.1783 983.047 74.0781 986.947 74.0781 991.766C74.0781 996.576 70.1783 1000.49 65.3585 1000.49Z" fill="#FFD150"/>
<path d="M110.319 1000.49H110.279C105.46 1000.49 101.56 996.586 101.56 991.766C101.56 986.947 105.46 983.047 110.279 983.047H110.319C115.139 983.047 119.039 986.947 119.039 991.766C119.039 996.576 115.139 1000.49 110.319 1000.49Z" fill="#FFD150"/>
<path d="M20.382 1000.49C18.0821 1000.49 15.8421 999.556 14.2122 997.936C12.5923 996.316 11.6623 994.066 11.6623 991.766C11.6623 989.467 12.5923 987.227 14.2122 985.597C15.8321 983.977 18.0821 983.047 20.382 983.047C22.6819 983.047 24.9218 983.977 26.5517 985.597C28.1716 987.217 29.1016 989.467 29.1016 991.766C29.1016 994.066 28.1716 996.306 26.5517 997.936C24.9218 999.556 22.6819 1000.49 20.382 1000.49Z" fill="#FFD150"/>
<path d="M155.257 1036.29C152.957 1036.29 150.717 1035.36 149.087 1033.74C147.467 1032.12 146.537 1029.87 146.537 1027.57C146.537 1025.27 147.467 1023.03 149.087 1021.4C150.707 1019.78 152.957 1018.85 155.257 1018.85C157.557 1018.85 159.797 1019.78 161.427 1021.4C163.047 1023.02 163.977 1025.27 163.977 1027.57C163.977 1029.87 163.047 1032.11 161.427 1033.74C159.797 1035.36 157.557 1036.29 155.257 1036.29Z" fill="#FFD150"/>
<path d="M65.3585 1036.29H65.3186C60.4988 1036.29 56.5989 1032.39 56.5989 1027.57C56.5989 1022.75 60.4988 1018.85 65.3186 1018.85H65.3585C70.1783 1018.85 74.0781 1022.75 74.0781 1027.57C74.0781 1032.39 70.1783 1036.29 65.3585 1036.29Z" fill="#FFD150"/>
<path d="M110.319 1036.29H110.279C105.46 1036.29 101.56 1032.39 101.56 1027.57C101.56 1022.75 105.46 1018.85 110.279 1018.85H110.319C115.139 1018.85 119.039 1022.75 119.039 1027.57C119.039 1032.39 115.139 1036.29 110.319 1036.29Z" fill="#FFD150"/>
<path d="M20.382 1036.29C18.0821 1036.29 15.8421 1035.36 14.2122 1033.74C12.5923 1032.12 11.6623 1029.87 11.6623 1027.57C11.6623 1025.27 12.5923 1023.03 14.2122 1021.4C15.8321 1019.78 18.0821 1018.85 20.382 1018.85C22.6819 1018.85 24.9218 1019.78 26.5517 1021.4C28.1716 1023.02 29.1016 1025.27 29.1016 1027.57C29.1016 1029.87 28.1716 1032.11 26.5517 1033.74C24.9218 1035.36 22.6819 1036.29 20.382 1036.29Z" fill="#FFD150"/>
<path d="M155.257 1072.11C152.957 1072.11 150.717 1071.18 149.087 1069.56C147.467 1067.94 146.537 1065.69 146.537 1063.39C146.537 1061.09 147.467 1058.85 149.087 1057.22C150.707 1055.6 152.957 1054.67 155.257 1054.67C157.557 1054.67 159.797 1055.6 161.427 1057.22C163.047 1058.84 163.977 1061.09 163.977 1063.39C163.977 1065.69 163.047 1067.93 161.427 1069.56C159.797 1071.18 157.557 1072.11 155.257 1072.11Z" fill="#FFD150"/>
<path d="M65.3585 1072.11H65.3186C60.4988 1072.11 56.5989 1068.21 56.5989 1063.39C56.5989 1058.57 60.4988 1054.67 65.3186 1054.67H65.3585C70.1783 1054.67 74.0781 1058.57 74.0781 1063.39C74.0781 1068.21 70.1783 1072.11 65.3585 1072.11Z" fill="#FFD150"/>
<path d="M110.319 1072.11H110.279C105.46 1072.11 101.56 1068.21 101.56 1063.39C101.56 1058.57 105.46 1054.67 110.279 1054.67H110.319C115.139 1054.67 119.039 1058.57 119.039 1063.39C119.039 1068.21 115.139 1072.11 110.319 1072.11Z" fill="#FFD150"/>
<path d="M20.382 1072.11C18.0821 1072.11 15.8421 1071.18 14.2122 1069.56C12.5923 1067.94 11.6623 1065.69 11.6623 1063.39C11.6623 1061.09 12.5923 1058.85 14.2122 1057.22C15.8321 1055.6 18.0821 1054.67 20.382 1054.67C22.6819 1054.67 24.9218 1055.6 26.5517 1057.22C28.1716 1058.84 29.1016 1061.09 29.1016 1063.39C29.1016 1065.69 28.1716 1067.93 26.5517 1069.56C24.9218 1071.18 22.6819 1072.11 20.382 1072.11Z" fill="#FFD150"/>
<path d="M697.546 424.799C695.246 424.799 693.006 423.869 691.376 422.249C689.756 420.629 688.826 418.379 688.826 416.079C688.826 413.779 689.756 411.539 691.376 409.909C692.996 408.289 695.246 407.359 697.546 407.359C699.846 407.359 702.086 408.289 703.716 409.909C705.336 411.529 706.266 413.779 706.266 416.079C706.266 418.379 705.336 420.619 703.716 422.249C702.096 423.869 699.846 424.799 697.546 424.799Z" fill="#FAFBFD"/>
<path d="M607.648 424.799H607.608C602.788 424.799 598.888 420.899 598.888 416.079C598.888 411.259 602.788 407.359 607.608 407.359H607.648C612.467 407.359 616.367 411.259 616.367 416.079C616.367 420.899 612.467 424.799 607.648 424.799Z" fill="#FAFBFD"/>
<path d="M652.616 424.799H652.576C647.767 424.799 643.857 420.899 643.857 416.079C643.857 411.259 647.757 407.359 652.576 407.359H652.616C657.436 407.359 661.336 411.259 661.336 416.079C661.326 420.899 657.426 424.799 652.616 424.799Z" fill="#FAFBFD"/>
<path d="M562.671 424.799C560.371 424.799 558.131 423.869 556.501 422.249C554.881 420.629 553.951 418.379 553.951 416.079C553.951 413.779 554.881 411.539 556.501 409.909C558.121 408.289 560.371 407.359 562.671 407.359C564.971 407.359 567.211 408.289 568.841 409.909C570.461 411.529 571.391 413.779 571.391 416.079C571.391 418.379 570.461 420.619 568.841 422.249C567.211 423.869 564.971 424.799 562.671 424.799Z" fill="#FAFBFD"/>
<path d="M697.546 388.994C695.246 388.994 693.006 388.064 691.376 386.444C689.756 384.824 688.826 382.574 688.826 380.274C688.826 377.974 689.756 375.734 691.376 374.105C692.996 372.485 695.246 371.555 697.546 371.555C699.846 371.555 702.086 372.485 703.716 374.105C705.336 375.724 706.266 377.974 706.266 380.274C706.266 382.574 705.336 384.814 703.716 386.444C702.096 388.064 699.846 388.994 697.546 388.994Z" fill="#FAFBFD"/>
<path d="M607.648 388.994H607.608C602.788 388.994 598.888 385.094 598.888 380.274C598.888 375.455 602.788 371.555 607.608 371.555H607.648C612.467 371.555 616.367 375.455 616.367 380.274C616.367 385.084 612.467 388.994 607.648 388.994Z" fill="#FAFBFD"/>
<path d="M652.616 388.994H652.576C647.767 388.994 643.857 385.094 643.857 380.274C643.857 375.455 647.757 371.555 652.576 371.555H652.616C657.436 371.555 661.336 375.455 661.336 380.274C661.326 385.084 657.426 388.994 652.616 388.994Z" fill="#FAFBFD"/>
<path d="M562.671 388.994C560.371 388.994 558.131 388.064 556.501 386.444C554.881 384.824 553.951 382.574 553.951 380.274C553.951 377.974 554.881 375.734 556.501 374.105C558.121 372.485 560.371 371.555 562.671 371.555C564.971 371.555 567.211 372.485 568.841 374.105C570.461 375.724 571.391 377.974 571.391 380.274C571.391 382.574 570.461 384.814 568.841 386.444C567.211 388.064 564.971 388.994 562.671 388.994Z" fill="#FAFBFD"/>
<path d="M697.546 460.619C695.246 460.619 693.006 459.689 691.376 458.069C689.756 456.449 688.826 454.199 688.826 451.899C688.826 449.599 689.756 447.359 691.376 445.73C692.996 444.11 695.246 443.18 697.546 443.18C699.846 443.18 702.086 444.11 703.716 445.73C705.336 447.349 706.266 449.599 706.266 451.899C706.266 454.199 705.336 456.439 703.716 458.069C702.096 459.689 699.846 460.619 697.546 460.619Z" fill="#FAFBFD"/>
<path d="M607.648 460.619H607.608C602.788 460.619 598.888 456.719 598.888 451.899C598.888 447.08 602.788 443.18 607.608 443.18H607.648C612.467 443.18 616.367 447.08 616.367 451.899C616.367 456.719 612.467 460.619 607.648 460.619Z" fill="#FAFBFD"/>
<path d="M652.616 460.619H652.576C647.767 460.619 643.857 456.719 643.857 451.899C643.857 447.08 647.757 443.18 652.576 443.18H652.616C657.436 443.18 661.336 447.08 661.336 451.899C661.326 456.719 657.426 460.619 652.616 460.619Z" fill="#FAFBFD"/>
<path d="M562.671 460.619C560.371 460.619 558.131 459.689 556.501 458.069C554.881 456.449 553.951 454.199 553.951 451.899C553.951 449.599 554.881 447.359 556.501 445.73C558.121 444.11 560.371 443.18 562.671 443.18C564.971 443.18 567.211 444.11 568.841 445.73C570.461 447.349 571.391 449.599 571.391 451.899C571.391 454.199 570.461 456.439 568.841 458.069C567.211 459.689 564.971 460.619 562.671 460.619Z" fill="#FAFBFD"/>
<path d="M697.546 496.439C695.246 496.439 693.006 495.509 691.376 493.889C689.756 492.269 688.826 490.019 688.826 487.72C688.826 485.42 689.756 483.18 691.376 481.55C692.996 479.93 695.246 479 697.546 479C699.846 479 702.086 479.93 703.716 481.55C705.336 483.17 706.266 485.42 706.266 487.72C706.266 490.019 705.336 492.259 703.716 493.889C702.096 495.509 699.846 496.439 697.546 496.439Z" fill="#FAFBFD"/>
<path d="M607.648 496.439H607.608C602.788 496.439 598.888 492.539 598.888 487.72C598.888 482.9 602.788 479 607.608 479H607.648C612.467 479 616.367 482.9 616.367 487.72C616.367 492.529 612.467 496.439 607.648 496.439Z" fill="#FAFBFD"/>
<path d="M652.616 496.439H652.576C647.767 496.439 643.857 492.539 643.857 487.72C643.857 482.9 647.757 479 652.576 479H652.616C657.436 479 661.336 482.9 661.336 487.72C661.326 492.529 657.426 496.439 652.616 496.439Z" fill="#FAFBFD"/>
<path d="M562.671 496.439C560.371 496.439 558.131 495.509 556.501 493.889C554.881 492.269 553.951 490.019 553.951 487.72C553.951 485.42 554.881 483.18 556.501 481.55C558.121 479.93 560.371 479 562.671 479C564.971 479 567.211 479.93 568.841 481.55C570.461 483.17 571.391 485.42 571.391 487.72C571.391 490.019 570.461 492.259 568.841 493.889C567.211 495.509 564.971 496.439 562.671 496.439Z" fill="#FAFBFD"/>
<path d="M697.546 532.244C695.246 532.244 693.006 531.314 691.376 529.694C689.756 528.074 688.826 525.824 688.826 523.524C688.826 521.224 689.756 518.984 691.376 517.355C692.996 515.735 695.246 514.805 697.546 514.805C699.846 514.805 702.086 515.735 703.716 517.355C705.336 518.974 706.266 521.224 706.266 523.524C706.266 525.824 705.336 528.064 703.716 529.694C702.096 531.314 699.846 532.244 697.546 532.244Z" fill="#FAFBFD"/>
<path d="M607.648 532.244H607.608C602.788 532.244 598.888 528.344 598.888 523.524C598.888 518.704 602.788 514.805 607.608 514.805H607.648C612.467 514.805 616.367 518.704 616.367 523.524C616.367 528.344 612.467 532.244 607.648 532.244Z" fill="#FAFBFD"/>
<path d="M652.616 532.244H652.576C647.767 532.244 643.857 528.344 643.857 523.524C643.857 518.704 647.757 514.805 652.576 514.805H652.616C657.436 514.805 661.336 518.704 661.336 523.524C661.326 528.344 657.426 532.244 652.616 532.244Z" fill="#FAFBFD"/>
<path d="M562.671 532.244C560.371 532.244 558.131 531.314 556.501 529.694C554.881 528.074 553.951 525.824 553.951 523.524C553.951 521.224 554.881 518.984 556.501 517.355C558.121 515.735 560.371 514.805 562.671 514.805C564.971 514.805 567.211 515.735 568.841 517.355C570.461 518.974 571.391 521.224 571.391 523.524C571.391 525.824 570.461 528.064 568.841 529.694C567.211 531.314 564.971 532.244 562.671 532.244Z" fill="#FAFBFD"/>
</svg>
