<svg width="80" height="80" viewBox="0 0 80 80" fill="none" xmlns="http://www.w3.org/2000/svg">
<rect width="80" height="80" rx="40" fill="#F4B740"/>
<path d="M59.1689 49.8431L45.0388 23.8684C42.7686 20.0464 37.2344 20.0413 34.9612 23.8684L20.8318 49.8431C18.511 53.7484 21.3208 58.6939 25.8694 58.6939H54.1301C58.6749 58.6939 61.4897 53.7524 59.1689 49.8431ZM40 54.0064C38.708 54.0064 37.6562 52.9547 37.6562 51.6627C37.6562 50.3706 38.708 49.3189 40 49.3189C41.292 49.3189 42.3437 50.3706 42.3437 51.6627C42.3437 52.9547 41.292 54.0064 40 54.0064ZM42.3437 44.6314C42.3437 45.9234 41.292 46.9752 40 46.9752C38.708 46.9752 37.6562 45.9234 37.6562 44.6314V32.9127C37.6562 31.6206 38.708 30.5689 40 30.5689C41.292 30.5689 42.3437 31.6206 42.3437 32.9127V44.6314Z" fill="white"/>
</svg>
