<svg width="1920" height="427" viewBox="0 0 1920 427" fill="none" xmlns="http://www.w3.org/2000/svg">
<path d="M1280 214.058C1279.97 96.5176 1375.53 0.567612 1493.37 0.687612V214.058H1280Z" fill="#FE5154"/>
<path d="M1372.05 214.062C1372 147.372 1426.38 92.6623 1493.37 92.7423V214.062H1372.05Z" fill="#FFD150"/>
<path d="M1493.37 214.062H1280V427.432H1493.37V214.062Z" fill="#00315D"/>
<path d="M1432.34 275.078H1341.02V366.398H1432.34V275.078Z" fill="#EBE6DA"/>
<path d="M213.367 320.736C220.477 176.726 421.887 181.576 426.737 320.736C419.627 464.746 218.217 459.896 213.367 320.736Z" fill="#FE5154"/>
<path d="M272.414 320.734C272.334 295.004 293.734 272.984 320.054 273.094C346.364 273.094 367.694 294.424 367.694 320.734C367.694 347.044 346.364 368.374 320.054 368.374C294.314 368.454 272.304 347.054 272.414 320.734Z" fill="#FFD150"/>
<path d="M213.367 214.057V0.6875C331.207 0.6875 426.737 96.2175 426.737 214.057C426.767 214.057 213.407 214.057 213.367 214.057Z" fill="#EBE6DA"/>
<path d="M1495.23 320.064C1502.34 176.054 1703.75 180.904 1708.6 320.064C1701.48 464.074 1500.07 459.214 1495.23 320.064Z" fill="#FE5154"/>
<path d="M1554.27 320.062C1554.19 294.332 1575.59 272.312 1601.91 272.422C1628.22 272.422 1649.55 293.752 1649.55 320.062C1649.55 346.372 1628.22 367.702 1601.91 367.702C1576.18 367.772 1554.16 346.372 1554.27 320.062Z" fill="#FFD150"/>
<path d="M1495.23 213.37V0C1613.07 0 1708.6 95.53 1708.6 213.37C1708.62 213.37 1495.26 213.37 1495.23 213.37Z" fill="#EBE6DA"/>
<path d="M7.06169e-06 214.058C-0.0299929 96.5176 95.53 0.557632 213.37 0.687632V214.058H7.06169e-06Z" fill="#FE5154"/>
<path d="M92.0469 214.054C91.9969 147.364 146.377 92.6545 213.367 92.7345V214.054H92.0469Z" fill="#FFD150"/>
<path d="M213.37 214.055H0V427.425H213.37V214.055Z" fill="#00315D"/>
<path d="M152.343 275.078H61.0234V366.398H152.343V275.078Z" fill="#EBE6DA"/>
<path d="M1280 214.062H1066.63V427.432H1280V214.062Z" fill="#FFD150"/>
<path d="M1066.63 107.368C1073.74 -36.6416 1275.15 -31.7916 1280 107.368C1272.89 251.378 1071.48 246.528 1066.63 107.368Z" fill="#00315D"/>
<path d="M1125.71 107.369C1129.43 41.9786 1219.27 46.5886 1220.92 107.369C1217.19 172.759 1127.35 168.149 1125.71 107.369Z" fill="#FE5154"/>
<path d="M853.258 214.058C853.228 96.5176 948.778 0.557632 1066.63 0.687632V214.058H853.258Z" fill="#EBE6DA"/>
<path d="M1066.63 214.062H853.258V427.432H1066.63V214.062Z" fill="#00315D"/>
<path d="M853.258 427.432V214.062L1066.63 427.432H853.258Z" fill="#00315D"/>
<path d="M639.893 214.057C639.893 96.2175 544.363 0.6875 426.523 0.6875V214.057H639.893Z" fill="#FE5154"/>
<path d="M639.893 214.055H426.523V427.425C544.363 427.425 639.893 331.895 639.893 214.055Z" fill="#FFD150"/>
<path d="M549.823 214.058C549.823 145.958 494.623 90.7578 426.523 90.7578V214.058H549.823Z" fill="#EBE6DA"/>
<path d="M549.823 214.055H426.523V337.355C494.623 337.345 549.823 282.145 549.823 214.055Z" fill="#FAFBFD"/>
<path d="M1923.09 0.6875H1709.72V214.057H1923.09V0.6875Z" fill="#00315D"/>
<path d="M1709.72 214.062C1709.69 331.603 1805.25 427.552 1923.09 427.432V214.062H1709.72Z" fill="#FE5154"/>
<path d="M853.261 214.063C735.721 214.033 639.771 309.592 639.891 427.432C757.431 427.462 853.381 331.903 853.261 214.063Z" fill="#FE5154"/>
<path d="M1787.63 184.723C1787.63 182.003 1786.53 179.343 1784.6 177.413C1782.68 175.493 1780.01 174.383 1777.29 174.383C1774.57 174.383 1771.91 175.483 1769.98 177.413C1768.06 179.333 1766.95 182.003 1766.95 184.723C1766.95 187.443 1768.05 190.103 1769.98 192.033C1771.9 193.953 1774.57 195.063 1777.29 195.063C1780.01 195.063 1782.67 193.963 1784.6 192.033C1786.53 190.113 1787.63 187.453 1787.63 184.723Z" fill="#FFD150"/>
<path d="M1787.63 78.1634V78.1134C1787.63 72.4034 1783 67.7734 1777.29 67.7734C1771.58 67.7734 1766.95 72.4034 1766.95 78.1134V78.1634C1766.95 83.8734 1771.58 88.5034 1777.29 88.5034C1783 88.5034 1787.63 83.8734 1787.63 78.1634Z" fill="#FFD150"/>
<path d="M1787.63 131.46V131.41C1787.63 125.7 1783 121.07 1777.29 121.07C1771.58 121.07 1766.95 125.7 1766.95 131.41V131.46C1766.95 137.17 1771.58 141.8 1777.29 141.8C1783 141.79 1787.63 137.16 1787.63 131.46Z" fill="#FFD150"/>
<path d="M1787.63 24.84C1787.63 22.12 1786.53 19.46 1784.6 17.53C1782.68 15.61 1780.01 14.5 1777.29 14.5C1774.57 14.5 1771.91 15.6 1769.98 17.53C1768.06 19.45 1766.95 22.12 1766.95 24.84C1766.95 27.56 1768.05 30.22 1769.98 32.15C1771.9 34.07 1774.57 35.18 1777.29 35.18C1780.01 35.18 1782.67 34.08 1784.6 32.15C1786.53 30.23 1787.63 27.57 1787.63 24.84Z" fill="#FFD150"/>
<path d="M1745.18 184.723C1745.18 182.003 1744.08 179.343 1742.15 177.413C1740.23 175.493 1737.56 174.383 1734.84 174.383C1732.12 174.383 1729.46 175.483 1727.53 177.413C1725.61 179.333 1724.5 182.003 1724.5 184.723C1724.5 187.443 1725.6 190.103 1727.53 192.033C1729.45 193.953 1732.12 195.063 1734.84 195.063C1737.56 195.063 1740.22 193.963 1742.15 192.033C1744.07 190.113 1745.18 187.453 1745.18 184.723Z" fill="#FFD150"/>
<path d="M1745.18 78.1634V78.1134C1745.18 72.4034 1740.55 67.7734 1734.84 67.7734C1729.13 67.7734 1724.5 72.4034 1724.5 78.1134V78.1634C1724.5 83.8734 1729.13 88.5034 1734.84 88.5034C1740.55 88.5034 1745.18 83.8734 1745.18 78.1634Z" fill="#FFD150"/>
<path d="M1745.18 131.46V131.41C1745.18 125.7 1740.55 121.07 1734.84 121.07C1729.13 121.07 1724.5 125.7 1724.5 131.41V131.46C1724.5 137.17 1729.13 141.8 1734.84 141.8C1740.55 141.79 1745.18 137.16 1745.18 131.46Z" fill="#FFD150"/>
<path d="M1745.18 24.84C1745.18 22.12 1744.08 19.46 1742.15 17.53C1740.23 15.61 1737.56 14.5 1734.84 14.5C1732.12 14.5 1729.46 15.6 1727.53 17.53C1725.61 19.45 1724.5 22.12 1724.5 24.84C1724.5 27.56 1725.6 30.22 1727.53 32.15C1729.45 34.07 1732.12 35.18 1734.84 35.18C1737.56 35.18 1740.22 34.08 1742.15 32.15C1744.07 30.23 1745.18 27.57 1745.18 24.84Z" fill="#FFD150"/>
<path d="M1830.09 184.723C1830.09 182.003 1828.99 179.343 1827.06 177.413C1825.14 175.493 1822.47 174.383 1819.75 174.383C1817.03 174.383 1814.37 175.483 1812.44 177.413C1810.52 179.333 1809.41 182.003 1809.41 184.723C1809.41 187.443 1810.51 190.103 1812.44 192.033C1814.36 193.953 1817.03 195.063 1819.75 195.063C1822.47 195.063 1825.13 193.963 1827.06 192.033C1828.98 190.113 1830.09 187.453 1830.09 184.723Z" fill="#FFD150"/>
<path d="M1830.09 78.1634V78.1134C1830.09 72.4034 1825.46 67.7734 1819.75 67.7734C1814.04 67.7734 1809.41 72.4034 1809.41 78.1134V78.1634C1809.41 83.8734 1814.04 88.5034 1819.75 88.5034C1825.46 88.5034 1830.09 83.8734 1830.09 78.1634Z" fill="#FFD150"/>
<path d="M1830.09 131.46V131.41C1830.09 125.7 1825.46 121.07 1819.75 121.07C1814.04 121.07 1809.41 125.7 1809.41 131.41V131.46C1809.41 137.17 1814.04 141.8 1819.75 141.8C1825.46 141.79 1830.09 137.16 1830.09 131.46Z" fill="#FFD150"/>
<path d="M1830.09 24.84C1830.09 22.12 1828.99 19.46 1827.06 17.53C1825.14 15.61 1822.47 14.5 1819.75 14.5C1817.03 14.5 1814.37 15.6 1812.44 17.53C1810.52 19.45 1809.41 22.12 1809.41 24.84C1809.41 27.56 1810.51 30.22 1812.44 32.15C1814.36 34.07 1817.03 35.18 1819.75 35.18C1822.47 35.18 1825.13 34.08 1827.06 32.15C1828.98 30.23 1830.09 27.57 1830.09 24.84Z" fill="#FFD150"/>
<path d="M1872.54 184.723C1872.54 182.003 1871.44 179.343 1869.51 177.413C1867.58 175.493 1864.92 174.383 1862.2 174.383C1859.48 174.383 1856.82 175.483 1854.89 177.413C1852.97 179.333 1851.86 182.003 1851.86 184.723C1851.86 187.443 1852.96 190.103 1854.89 192.033C1856.81 193.953 1859.48 195.063 1862.2 195.063C1864.92 195.063 1867.58 193.963 1869.51 192.033C1871.44 190.113 1872.54 187.453 1872.54 184.723Z" fill="#FFD150"/>
<path d="M1872.54 78.1634V78.1134C1872.54 72.4034 1867.91 67.7734 1862.2 67.7734C1856.49 67.7734 1851.86 72.4034 1851.86 78.1134V78.1634C1851.86 83.8734 1856.49 88.5034 1862.2 88.5034C1867.91 88.5034 1872.54 83.8734 1872.54 78.1634Z" fill="#FFD150"/>
<path d="M1872.54 131.46V131.41C1872.54 125.7 1867.91 121.07 1862.2 121.07C1856.49 121.07 1851.86 125.7 1851.86 131.41V131.46C1851.86 137.17 1856.49 141.8 1862.2 141.8C1867.91 141.79 1872.54 137.16 1872.54 131.46Z" fill="#FFD150"/>
<path d="M1872.54 24.84C1872.54 22.12 1871.44 19.46 1869.51 17.53C1867.58 15.61 1864.92 14.5 1862.2 14.5C1859.48 14.5 1856.82 15.6 1854.89 17.53C1852.97 19.45 1851.86 22.12 1851.86 24.84C1851.86 27.56 1852.96 30.22 1854.89 32.15C1856.81 34.07 1859.48 35.18 1862.2 35.18C1864.92 35.18 1867.58 34.08 1869.51 32.15C1871.44 30.23 1872.54 27.57 1872.54 24.84Z" fill="#FFD150"/>
<path d="M1915 184.723C1915 182.003 1913.9 179.343 1911.97 177.413C1910.05 175.493 1907.38 174.383 1904.66 174.383C1901.94 174.383 1899.28 175.483 1897.35 177.413C1895.43 179.333 1894.32 182.003 1894.32 184.723C1894.32 187.443 1895.42 190.103 1897.35 192.033C1899.27 193.953 1901.94 195.063 1904.66 195.063C1907.38 195.063 1910.04 193.963 1911.97 192.033C1913.89 190.113 1915 187.453 1915 184.723Z" fill="#FFD150"/>
<path d="M1915 78.1634V78.1134C1915 72.4034 1910.37 67.7734 1904.66 67.7734C1898.95 67.7734 1894.32 72.4034 1894.32 78.1134V78.1634C1894.32 83.8734 1898.95 88.5034 1904.66 88.5034C1910.37 88.5034 1915 83.8734 1915 78.1634Z" fill="#FFD150"/>
<path d="M1915 131.46V131.41C1915 125.7 1910.37 121.07 1904.66 121.07C1898.95 121.07 1894.32 125.7 1894.32 131.41V131.46C1894.32 137.17 1898.95 141.8 1904.66 141.8C1910.37 141.79 1915 137.16 1915 131.46Z" fill="#FFD150"/>
<path d="M1915 24.84C1915 22.12 1913.9 19.46 1911.97 17.53C1910.05 15.61 1907.38 14.5 1904.66 14.5C1901.94 14.5 1899.28 15.6 1897.35 17.53C1895.43 19.45 1894.32 22.12 1894.32 24.84C1894.32 27.56 1895.42 30.22 1897.35 32.15C1899.27 34.07 1901.94 35.18 1904.66 35.18C1907.38 35.18 1910.04 34.08 1911.97 32.15C1913.89 30.23 1915 27.57 1915 24.84Z" fill="#FFD150"/>
<path d="M1203.18 240.66C1203.18 243.38 1204.28 246.04 1206.21 247.97C1208.13 249.89 1210.8 251 1213.52 251C1216.24 251 1218.9 249.9 1220.83 247.97C1222.75 246.05 1223.86 243.38 1223.86 240.66C1223.86 237.94 1222.76 235.28 1220.83 233.35C1218.91 231.43 1216.24 230.32 1213.52 230.32C1210.8 230.32 1208.14 231.42 1206.21 233.35C1204.28 235.28 1203.18 237.94 1203.18 240.66Z" fill="#FAFBFD"/>
<path d="M1203.18 347.223V347.273C1203.18 352.983 1207.81 357.613 1213.52 357.613C1219.23 357.613 1223.86 352.983 1223.86 347.273V347.223C1223.86 341.513 1219.23 336.883 1213.52 336.883C1207.81 336.893 1203.18 341.523 1203.18 347.223Z" fill="#FAFBFD"/>
<path d="M1203.18 293.934V293.984C1203.18 299.694 1207.81 304.324 1213.52 304.324C1219.23 304.324 1223.86 299.694 1223.86 293.984V293.934C1223.86 288.224 1219.23 283.594 1213.52 283.594C1207.81 283.604 1203.18 288.224 1203.18 293.934Z" fill="#FAFBFD"/>
<path d="M1203.18 400.543C1203.18 403.263 1204.28 405.923 1206.21 407.853C1208.13 409.773 1210.8 410.883 1213.52 410.883C1216.24 410.883 1218.9 409.783 1220.83 407.853C1222.75 405.933 1223.86 403.263 1223.86 400.543C1223.86 397.823 1222.76 395.163 1220.83 393.233C1218.91 391.313 1216.24 390.203 1213.52 390.203C1210.8 390.203 1208.14 391.303 1206.21 393.233C1204.28 395.163 1203.18 397.823 1203.18 400.543Z" fill="#FAFBFD"/>
<path d="M1245.64 240.66C1245.64 243.38 1246.74 246.04 1248.67 247.97C1250.59 249.89 1253.26 251 1255.98 251C1258.7 251 1261.36 249.9 1263.29 247.97C1265.21 246.05 1266.32 243.38 1266.32 240.66C1266.32 237.94 1265.22 235.28 1263.29 233.35C1261.36 231.43 1258.7 230.32 1255.98 230.32C1253.26 230.32 1250.6 231.42 1248.67 233.35C1246.74 235.28 1245.64 237.94 1245.64 240.66Z" fill="#FAFBFD"/>
<path d="M1245.64 347.223V347.273C1245.64 352.983 1250.27 357.613 1255.98 357.613C1261.69 357.613 1266.32 352.983 1266.32 347.273V347.223C1266.32 341.513 1261.69 336.883 1255.98 336.883C1250.27 336.893 1245.64 341.523 1245.64 347.223Z" fill="#FAFBFD"/>
<path d="M1245.64 293.934V293.984C1245.64 299.694 1250.27 304.324 1255.98 304.324C1261.69 304.324 1266.32 299.694 1266.32 293.984V293.934C1266.32 288.224 1261.69 283.594 1255.98 283.594C1250.27 283.604 1245.64 288.224 1245.64 293.934Z" fill="#FAFBFD"/>
<path d="M1245.64 400.543C1245.64 403.263 1246.74 405.923 1248.67 407.853C1250.59 409.773 1253.26 410.883 1255.98 410.883C1258.7 410.883 1261.36 409.783 1263.29 407.853C1265.21 405.933 1266.32 403.263 1266.32 400.543C1266.32 397.823 1265.22 395.163 1263.29 393.233C1261.36 391.313 1258.7 390.203 1255.98 390.203C1253.26 390.203 1250.6 391.303 1248.67 393.233C1246.74 395.163 1245.64 397.823 1245.64 400.543Z" fill="#FAFBFD"/>
<path d="M1160.73 240.66C1160.73 243.38 1161.83 246.04 1163.76 247.97C1165.68 249.89 1168.35 251 1171.07 251C1173.79 251 1176.45 249.9 1178.38 247.97C1180.3 246.05 1181.41 243.38 1181.41 240.66C1181.41 237.94 1180.31 235.28 1178.38 233.35C1176.46 231.43 1173.79 230.32 1171.07 230.32C1168.35 230.32 1165.69 231.42 1163.76 233.35C1161.83 235.28 1160.73 237.94 1160.73 240.66Z" fill="#FAFBFD"/>
<path d="M1160.73 347.223V347.273C1160.73 352.983 1165.36 357.613 1171.07 357.613C1176.78 357.613 1181.41 352.983 1181.41 347.273V347.223C1181.41 341.513 1176.78 336.883 1171.07 336.883C1165.35 336.893 1160.73 341.523 1160.73 347.223Z" fill="#FAFBFD"/>
<path d="M1160.73 293.934V293.984C1160.73 299.694 1165.36 304.324 1171.07 304.324C1176.78 304.324 1181.41 299.694 1181.41 293.984V293.934C1181.41 288.224 1176.78 283.594 1171.07 283.594C1165.35 283.604 1160.73 288.224 1160.73 293.934Z" fill="#FAFBFD"/>
<path d="M1160.73 400.543C1160.73 403.263 1161.83 405.923 1163.76 407.853C1165.68 409.773 1168.35 410.883 1171.07 410.883C1173.79 410.883 1176.45 409.783 1178.38 407.853C1180.3 405.933 1181.41 403.263 1181.41 400.543C1181.41 397.823 1180.31 395.163 1178.38 393.233C1176.46 391.313 1173.79 390.203 1171.07 390.203C1168.35 390.203 1165.69 391.303 1163.76 393.233C1161.83 395.163 1160.73 397.823 1160.73 400.543Z" fill="#FAFBFD"/>
<path d="M1118.27 240.66C1118.27 243.38 1119.37 246.04 1121.3 247.97C1123.22 249.89 1125.89 251 1128.61 251C1131.33 251 1133.99 249.9 1135.92 247.97C1137.84 246.05 1138.95 243.38 1138.95 240.66C1138.95 237.94 1137.85 235.28 1135.92 233.35C1134 231.43 1131.33 230.32 1128.61 230.32C1125.89 230.32 1123.23 231.42 1121.3 233.35C1119.38 235.28 1118.27 237.94 1118.27 240.66Z" fill="#FAFBFD"/>
<path d="M1118.27 347.223V347.273C1118.27 352.983 1122.9 357.613 1128.61 357.613C1134.32 357.613 1138.95 352.983 1138.95 347.273V347.223C1138.95 341.513 1134.32 336.883 1128.61 336.883C1122.9 336.893 1118.27 341.523 1118.27 347.223Z" fill="#FAFBFD"/>
<path d="M1118.27 293.934V293.984C1118.27 299.694 1122.9 304.324 1128.61 304.324C1134.32 304.324 1138.95 299.694 1138.95 293.984V293.934C1138.95 288.224 1134.32 283.594 1128.61 283.594C1122.9 283.604 1118.27 288.224 1118.27 293.934Z" fill="#FAFBFD"/>
<path d="M1118.27 400.543C1118.27 403.263 1119.37 405.923 1121.3 407.853C1123.22 409.773 1125.89 410.883 1128.61 410.883C1131.33 410.883 1133.99 409.783 1135.92 407.853C1137.84 405.933 1138.95 403.263 1138.95 400.543C1138.95 397.823 1137.85 395.163 1135.92 393.233C1134 391.313 1131.33 390.203 1128.61 390.203C1125.89 390.203 1123.23 391.303 1121.3 393.233C1119.38 395.163 1118.27 397.823 1118.27 400.543Z" fill="#FAFBFD"/>
<path d="M1075.82 240.66C1075.82 243.38 1076.92 246.04 1078.85 247.97C1080.77 249.89 1083.44 251 1086.16 251C1088.88 251 1091.54 249.9 1093.47 247.97C1095.39 246.05 1096.5 243.38 1096.5 240.66C1096.5 237.94 1095.4 235.28 1093.47 233.35C1091.55 231.43 1088.88 230.32 1086.16 230.32C1083.44 230.32 1080.78 231.42 1078.85 233.35C1076.92 235.28 1075.82 237.94 1075.82 240.66Z" fill="#FAFBFD"/>
<path d="M1075.82 347.223V347.273C1075.82 352.983 1080.45 357.613 1086.16 357.613C1091.87 357.613 1096.5 352.983 1096.5 347.273V347.223C1096.5 341.513 1091.87 336.883 1086.16 336.883C1080.44 336.893 1075.82 341.523 1075.82 347.223Z" fill="#FAFBFD"/>
<path d="M1075.82 293.934V293.984C1075.82 299.694 1080.45 304.324 1086.16 304.324C1091.87 304.324 1096.5 299.694 1096.5 293.984V293.934C1096.5 288.224 1091.87 283.594 1086.16 283.594C1080.44 283.604 1075.82 288.224 1075.82 293.934Z" fill="#FAFBFD"/>
<path d="M1075.82 400.543C1075.82 403.263 1076.92 405.923 1078.85 407.853C1080.77 409.773 1083.44 410.883 1086.16 410.883C1088.88 410.883 1091.54 409.783 1093.47 407.853C1095.39 405.933 1096.5 403.263 1096.5 400.543C1096.5 397.823 1095.4 395.163 1093.47 393.233C1091.55 391.313 1088.88 390.203 1086.16 390.203C1083.44 390.203 1080.78 391.303 1078.85 393.233C1076.92 395.163 1075.82 397.823 1075.82 400.543Z" fill="#FAFBFD"/>
<path d="M853.253 214.05C853.253 96.2097 757.723 0.679688 639.883 0.679688C639.883 118.53 735.413 214.05 853.253 214.05Z" fill="#FFD150"/>
</svg>
