<svg width="900" height="1080" viewBox="0 0 900 1080" fill="none" xmlns="http://www.w3.org/2000/svg">
<path d="M269.996 179.999C220.288 179.999 180 139.701 180 90.0036C180 40.2959 220.298 0.0078125 269.996 0.0078125C319.704 0.0078125 359.992 40.3059 359.992 90.0036C360.002 139.701 319.704 179.999 269.996 179.999Z" fill="#FE5154"/>
<path d="M270.001 130.181C247.802 130.181 229.812 112.192 229.812 89.9928C229.812 67.7939 247.802 49.8047 270.001 49.8047C292.2 49.8047 310.189 67.7939 310.189 89.9928C310.189 112.192 292.2 130.181 270.001 130.181Z" fill="#FFD150"/>
<path d="M540.01 0H360.008V180.002H540.01V0Z" fill="#00315D"/>
<path d="M180.002 180.002H0C0 80.5863 80.5864 0 180.002 0V180.002Z" fill="#EBE6DA"/>
<path d="M540.008 180.002V0H720.01C720 99.4154 639.413 180.002 540.008 180.002Z" fill="#FE5154"/>
<path d="M900.002 180.002C800.586 180.002 720 99.4154 720 0H900.002V180.002Z" fill="#EBE6DA"/>
<path d="M180.002 360.002C80.5864 360.002 0 279.405 0 180H180.002V360.002Z" fill="#FE5154"/>
<path d="M180.002 282.345C123.474 282.345 77.6562 236.517 77.6562 180H180.002V282.345Z" fill="#FFD150"/>
<path d="M360.002 180H180V360.002H360.002V180Z" fill="#00315D"/>
<path d="M308.513 231.477H231.477V308.513H308.513V231.477Z" fill="#EBE6DA"/>
<path d="M540.01 180H360.008V360.002H540.01V180Z" fill="#EBE6DA"/>
<path d="M540 360.002H360.008C360.008 260.586 440.594 180 540.01 180V360.002H540Z" fill="#FE5154"/>
<path d="M900.002 360.002H720C720 260.586 800.586 180 900.002 180V360.002Z" fill="#FE5154"/>
<path d="M719.994 360.002H539.992V180C639.408 180 719.994 260.586 719.994 360.002Z" fill="#FFD150"/>
<path d="M360.002 360H180V540.002H360.002V360Z" fill="#FFD150"/>
<path d="M540.01 360H360.008V540.002H540.01V360Z" fill="#FAFBFD"/>
<path d="M89.996 539.992C40.2882 539.992 0 499.694 0 449.996C0 400.288 40.2982 360 89.996 360C139.704 360 179.992 400.298 179.992 449.996C180.002 499.704 139.704 539.992 89.996 539.992Z" fill="#00315D"/>
<path d="M89.9942 490.152C67.8151 490.152 49.8359 472.173 49.8359 449.994C49.8359 427.815 67.8151 409.836 89.9942 409.836C112.173 409.836 130.152 427.815 130.152 449.994C130.152 472.173 112.173 490.152 89.9942 490.152Z" fill="#FE5154"/>
<path d="M719.994 360H539.992V540.002H719.994V360Z" fill="#FAFBFD"/>
<path d="M539.994 539.994C440.579 539.994 359.992 459.408 359.992 359.992H539.994V539.994Z" fill="#00315D"/>
<path d="M540.008 539.994V359.992H720.01C720 459.408 639.413 539.994 540.008 539.994Z" fill="#FE5154"/>
<path d="M539.999 360.001H450.883C450.883 310.783 490.781 270.875 540.009 270.875V360.001H539.999Z" fill="#FAFBFD"/>
<path d="M629.118 360.001H539.992V270.875C589.22 270.875 629.118 310.773 629.118 360.001Z" fill="#FE5154"/>
<path d="M539.993 449.126C490.775 449.126 450.867 409.228 450.867 360H539.993V449.126Z" fill="#FFD150"/>
<path d="M540.008 449.126V360H629.134C629.124 409.218 589.226 449.126 540.008 449.126Z" fill="#00315D"/>
<path d="M900.002 539.992H720V360C819.416 360 900.002 440.586 900.002 539.992Z" fill="#00315D"/>
<path d="M180.002 719.992C80.5864 719.992 0 639.405 0 540H180.002V719.992Z" fill="#EBE6DA"/>
<path d="M360.002 539.992H180V719.994H360.002V539.992Z" fill="#00315D"/>
<path d="M360.002 719.994H180L360.002 539.992V719.994Z" fill="#00315D"/>
<path d="M540 719.994H360.008V539.992C459.413 539.992 540 620.588 540 719.994Z" fill="#FE5154"/>
<path d="M900.002 719.994H720V539.992C819.416 539.992 900.002 620.588 900.002 719.994Z" fill="#FFD150"/>
<path d="M719.994 719.994H539.992C539.992 620.578 620.579 539.992 719.994 539.992V719.994Z" fill="#00315D"/>
<path d="M719.994 719.994H539.992C539.992 620.578 620.579 539.992 719.994 539.992V719.994Z" fill="#00315D"/>
<path d="M833.055 719.992H720V606.938C782.437 606.938 833.055 657.555 833.055 719.992Z" fill="#EBE6DA"/>
<path d="M720 719.992H606.945C606.945 657.555 657.563 606.938 720 606.938V719.992Z" fill="#FE5154"/>
<path d="M180.002 900C80.5864 900 0 980.586 0 1080H180.002V900Z" fill="#FE5154"/>
<path d="M180 900V1080H360.002C360.002 980.586 279.406 900 180 900Z" fill="#FFD150"/>
<path d="M180 975.984C122.552 975.984 75.9844 1022.55 75.9844 1080H180V975.984Z" fill="#EBE6DA"/>
<path d="M180 975.984V1080H284.015C284.015 1022.55 237.447 975.984 180 975.984Z" fill="#FAFBFD"/>
<path d="M360.008 900C360.008 999.415 440.594 1080 540.01 1080C540 980.586 459.413 900 360.008 900Z" fill="#00315D"/>
<path d="M900.002 900H720V1080H900.002V900Z" fill="#00315D"/>
<path d="M719.994 900C620.579 900 539.992 980.586 539.992 1080H719.994V900Z" fill="#FE5154"/>
<path d="M180 720C180 819.415 260.586 900.002 360.002 900.002C360.002 800.596 279.406 720 180 720Z" fill="#FE5154"/>
<path d="M539.994 720C440.579 720 359.992 800.586 359.992 900.002C459.408 900.002 539.994 819.415 539.994 720Z" fill="#FFD150"/>
<path d="M719.994 720H539.992V900.002H719.994V720Z" fill="#FAFBFD"/>
<path d="M674.998 720C650.149 720 630 740.149 630 764.998C630 789.847 650.149 809.996 674.998 809.996C699.847 809.996 719.996 789.847 719.996 764.998C719.996 740.149 699.857 720 674.998 720Z" fill="#FFD150"/>
<path d="M675.001 754.352C669.121 754.352 664.352 759.121 664.352 765.001C664.352 770.881 669.121 775.651 675.001 775.651C680.881 775.651 685.651 770.881 685.651 765.001C685.651 759.121 680.881 754.352 675.001 754.352Z" fill="#FAFBFD"/>
<path d="M585.006 720C560.157 720 540.008 740.149 540.008 764.998C540.008 789.847 560.157 809.996 585.006 809.996C609.855 809.996 630.004 789.847 630.004 764.998C630.004 740.149 609.855 720 585.006 720Z" fill="#EBE6DA"/>
<path d="M585.001 754.352C579.121 754.352 574.352 759.121 574.352 765.001C574.352 770.881 579.121 775.651 585.001 775.651C590.881 775.651 595.651 770.881 595.651 765.001C595.651 759.121 590.881 754.352 585.001 754.352Z" fill="#00315D"/>
<path d="M674.998 810.008C650.149 810.008 630 830.157 630 855.006C630 879.855 650.149 900.004 674.998 900.004C699.847 900.004 719.996 879.855 719.996 855.006C719.996 830.157 699.857 810.008 674.998 810.008Z" fill="#00315D"/>
<path d="M675.001 844.352C669.121 844.352 664.352 849.121 664.352 855.001C664.352 860.881 669.121 865.651 675.001 865.651C680.881 865.651 685.651 860.881 685.651 855.001C685.651 849.121 680.881 844.352 675.001 844.352Z" fill="#FFD150"/>
<path d="M585.006 810.008C560.157 810.008 540.008 830.157 540.008 855.006C540.008 879.855 560.157 900.004 585.006 900.004C609.855 900.004 630.004 879.855 630.004 855.006C630.004 830.157 609.855 810.008 585.006 810.008Z" fill="#FE5154"/>
<path d="M585.001 844.352C579.121 844.352 574.352 849.121 574.352 855.001C574.352 860.881 579.121 865.651 585.001 865.651C590.881 865.651 595.651 860.881 595.651 855.001C595.651 849.121 590.881 844.352 585.001 844.352Z" fill="#EBE6DA"/>
<path d="M899.994 720H719.992V900.002H899.994V720Z" fill="#FE5154"/>
<path d="M848.341 771.664H771.664V848.34H848.341V771.664Z" fill="#00315D"/>
<path d="M744.743 964.666C747.043 964.666 749.283 963.736 750.913 962.116C752.533 960.496 753.463 958.246 753.463 955.946C753.463 953.646 752.533 951.406 750.913 949.776C749.293 948.157 747.043 947.227 744.743 947.227C742.443 947.227 740.203 948.157 738.573 949.776C736.953 951.396 736.023 953.646 736.023 955.946C736.023 958.246 736.953 960.486 738.573 962.116C740.203 963.736 742.443 964.666 744.743 964.666Z" fill="#FFD150"/>
<path d="M834.641 964.666H834.681C839.501 964.666 843.401 960.766 843.401 955.946C843.401 951.126 839.501 947.227 834.681 947.227H834.641C829.822 947.227 825.922 951.126 825.922 955.946C825.922 960.766 829.822 964.666 834.641 964.666Z" fill="#FFD150"/>
<path d="M789.681 964.666H789.721C794.54 964.666 798.44 960.766 798.44 955.946C798.44 951.126 794.54 947.227 789.721 947.227H789.681C784.861 947.227 780.961 951.126 780.961 955.946C780.961 960.766 784.861 964.666 789.681 964.666Z" fill="#FFD150"/>
<path d="M879.618 964.666C881.918 964.666 884.158 963.736 885.788 962.116C887.408 960.496 888.338 958.246 888.338 955.946C888.338 953.646 887.408 951.406 885.788 949.776C884.168 948.157 881.918 947.227 879.618 947.227C877.318 947.227 875.078 948.157 873.448 949.776C871.828 951.396 870.898 953.646 870.898 955.946C870.898 958.246 871.828 960.486 873.448 962.116C875.078 963.736 877.318 964.666 879.618 964.666Z" fill="#FFD150"/>
<path d="M744.743 928.843C747.043 928.843 749.283 927.913 750.913 926.293C752.533 924.673 753.463 922.424 753.463 920.134C753.463 917.834 752.533 915.594 750.913 913.964C749.293 912.344 747.043 911.414 744.743 911.414C742.443 911.414 740.203 912.344 738.573 913.964C736.953 915.584 736.023 917.834 736.023 920.134C736.023 922.434 736.953 924.673 738.573 926.293C740.203 927.913 742.443 928.843 744.743 928.843Z" fill="#FFD150"/>
<path d="M834.641 928.845H834.681C839.501 928.845 843.401 924.946 843.401 920.126C843.401 915.306 839.501 911.406 834.681 911.406H834.641C829.822 911.406 825.922 915.306 825.922 920.126C825.922 924.946 829.822 928.845 834.641 928.845Z" fill="#FFD150"/>
<path d="M789.681 928.845H789.721C794.54 928.845 798.44 924.946 798.44 920.126C798.44 915.306 794.54 911.406 789.721 911.406H789.681C784.861 911.406 780.961 915.306 780.961 920.126C780.961 924.946 784.861 928.845 789.681 928.845Z" fill="#FFD150"/>
<path d="M879.618 928.843C881.918 928.843 884.158 927.913 885.788 926.293C887.408 924.673 888.338 922.424 888.338 920.134C888.338 917.834 887.408 915.594 885.788 913.964C884.168 912.344 881.918 911.414 879.618 911.414C877.318 911.414 875.078 912.344 873.448 913.964C871.828 915.584 870.898 917.834 870.898 920.134C870.898 922.434 871.828 924.673 873.448 926.293C875.078 927.913 877.318 928.843 879.618 928.843Z" fill="#FFD150"/>
<path d="M744.743 1000.49C747.043 1000.49 749.283 999.556 750.913 997.936C752.533 996.316 753.463 994.066 753.463 991.766C753.463 989.467 752.533 987.227 750.913 985.597C749.293 983.977 747.043 983.047 744.743 983.047C742.443 983.047 740.203 983.977 738.573 985.597C736.953 987.217 736.023 989.467 736.023 991.766C736.023 994.066 736.953 996.306 738.573 997.936C740.203 999.556 742.443 1000.49 744.743 1000.49Z" fill="#FFD150"/>
<path d="M834.641 1000.49H834.681C839.501 1000.49 843.401 996.586 843.401 991.766C843.401 986.947 839.501 983.047 834.681 983.047H834.641C829.822 983.047 825.922 986.947 825.922 991.766C825.922 996.576 829.822 1000.49 834.641 1000.49Z" fill="#FFD150"/>
<path d="M789.681 1000.49H789.721C794.54 1000.49 798.44 996.586 798.44 991.766C798.44 986.947 794.54 983.047 789.721 983.047H789.681C784.861 983.047 780.961 986.947 780.961 991.766C780.961 996.576 784.861 1000.49 789.681 1000.49Z" fill="#FFD150"/>
<path d="M879.618 1000.49C881.918 1000.49 884.158 999.556 885.788 997.936C887.408 996.316 888.338 994.066 888.338 991.766C888.338 989.467 887.408 987.227 885.788 985.597C884.168 983.977 881.918 983.047 879.618 983.047C877.318 983.047 875.078 983.977 873.448 985.597C871.828 987.217 870.898 989.467 870.898 991.766C870.898 994.066 871.828 996.306 873.448 997.936C875.078 999.556 877.318 1000.49 879.618 1000.49Z" fill="#FFD150"/>
<path d="M744.743 1036.29C747.043 1036.29 749.283 1035.36 750.913 1033.74C752.533 1032.12 753.463 1029.87 753.463 1027.57C753.463 1025.27 752.533 1023.03 750.913 1021.4C749.293 1019.78 747.043 1018.85 744.743 1018.85C742.443 1018.85 740.203 1019.78 738.573 1021.4C736.953 1023.02 736.023 1025.27 736.023 1027.57C736.023 1029.87 736.953 1032.11 738.573 1033.74C740.203 1035.36 742.443 1036.29 744.743 1036.29Z" fill="#FFD150"/>
<path d="M834.641 1036.29H834.681C839.501 1036.29 843.401 1032.39 843.401 1027.57C843.401 1022.75 839.501 1018.85 834.681 1018.85H834.641C829.822 1018.85 825.922 1022.75 825.922 1027.57C825.922 1032.39 829.822 1036.29 834.641 1036.29Z" fill="#FFD150"/>
<path d="M789.681 1036.29H789.721C794.54 1036.29 798.44 1032.39 798.44 1027.57C798.44 1022.75 794.54 1018.85 789.721 1018.85H789.681C784.861 1018.85 780.961 1022.75 780.961 1027.57C780.961 1032.39 784.861 1036.29 789.681 1036.29Z" fill="#FFD150"/>
<path d="M879.618 1036.29C881.918 1036.29 884.158 1035.36 885.788 1033.74C887.408 1032.12 888.338 1029.87 888.338 1027.57C888.338 1025.27 887.408 1023.03 885.788 1021.4C884.168 1019.78 881.918 1018.85 879.618 1018.85C877.318 1018.85 875.078 1019.78 873.448 1021.4C871.828 1023.02 870.898 1025.27 870.898 1027.57C870.898 1029.87 871.828 1032.11 873.448 1033.74C875.078 1035.36 877.318 1036.29 879.618 1036.29Z" fill="#FFD150"/>
<path d="M744.743 1072.11C747.043 1072.11 749.283 1071.18 750.913 1069.56C752.533 1067.94 753.463 1065.69 753.463 1063.39C753.463 1061.09 752.533 1058.85 750.913 1057.22C749.293 1055.6 747.043 1054.67 744.743 1054.67C742.443 1054.67 740.203 1055.6 738.573 1057.22C736.953 1058.84 736.023 1061.09 736.023 1063.39C736.023 1065.69 736.953 1067.93 738.573 1069.56C740.203 1071.18 742.443 1072.11 744.743 1072.11Z" fill="#FFD150"/>
<path d="M834.641 1072.11H834.681C839.501 1072.11 843.401 1068.21 843.401 1063.39C843.401 1058.57 839.501 1054.67 834.681 1054.67H834.641C829.822 1054.67 825.922 1058.57 825.922 1063.39C825.922 1068.21 829.822 1072.11 834.641 1072.11Z" fill="#FFD150"/>
<path d="M789.681 1072.11H789.721C794.54 1072.11 798.44 1068.21 798.44 1063.39C798.44 1058.57 794.54 1054.67 789.721 1054.67H789.681C784.861 1054.67 780.961 1058.57 780.961 1063.39C780.961 1068.21 784.861 1072.11 789.681 1072.11Z" fill="#FFD150"/>
<path d="M879.618 1072.11C881.918 1072.11 884.158 1071.18 885.788 1069.56C887.408 1067.94 888.338 1065.69 888.338 1063.39C888.338 1061.09 887.408 1058.85 885.788 1057.22C884.168 1055.6 881.918 1054.67 879.618 1054.67C877.318 1054.67 875.078 1055.6 873.448 1057.22C871.828 1058.84 870.898 1061.09 870.898 1063.39C870.898 1065.69 871.828 1067.93 873.448 1069.56C875.078 1071.18 877.318 1072.11 879.618 1072.11Z" fill="#FFD150"/>
<path d="M202.454 424.799C204.754 424.799 206.994 423.869 208.624 422.249C210.244 420.629 211.174 418.379 211.174 416.079C211.174 413.779 210.244 411.539 208.624 409.909C207.004 408.289 204.754 407.359 202.454 407.359C200.154 407.359 197.914 408.289 196.284 409.909C194.664 411.529 193.734 413.779 193.734 416.079C193.734 418.379 194.664 420.619 196.284 422.249C197.904 423.869 200.154 424.799 202.454 424.799Z" fill="#FAFBFD"/>
<path d="M292.352 424.799H292.392C297.212 424.799 301.112 420.899 301.112 416.079C301.112 411.259 297.212 407.359 292.392 407.359H292.352C287.533 407.359 283.633 411.259 283.633 416.079C283.633 420.899 287.533 424.799 292.352 424.799Z" fill="#FAFBFD"/>
<path d="M247.384 424.799H247.424C252.233 424.799 256.143 420.899 256.143 416.079C256.143 411.259 252.243 407.359 247.424 407.359H247.384C242.564 407.359 238.664 411.259 238.664 416.079C238.674 420.899 242.574 424.799 247.384 424.799Z" fill="#FAFBFD"/>
<path d="M337.329 424.799C339.629 424.799 341.869 423.869 343.499 422.249C345.119 420.629 346.049 418.379 346.049 416.079C346.049 413.779 345.119 411.539 343.499 409.909C341.879 408.289 339.629 407.359 337.329 407.359C335.029 407.359 332.789 408.289 331.159 409.909C329.539 411.529 328.609 413.779 328.609 416.079C328.609 418.379 329.539 420.619 331.159 422.249C332.789 423.869 335.029 424.799 337.329 424.799Z" fill="#FAFBFD"/>
<path d="M202.454 388.994C204.754 388.994 206.994 388.064 208.624 386.444C210.244 384.824 211.174 382.574 211.174 380.274C211.174 377.974 210.244 375.734 208.624 374.105C207.004 372.485 204.754 371.555 202.454 371.555C200.154 371.555 197.914 372.485 196.284 374.105C194.664 375.724 193.734 377.974 193.734 380.274C193.734 382.574 194.664 384.814 196.284 386.444C197.904 388.064 200.154 388.994 202.454 388.994Z" fill="#FAFBFD"/>
<path d="M292.352 388.994H292.392C297.212 388.994 301.112 385.094 301.112 380.274C301.112 375.455 297.212 371.555 292.392 371.555H292.352C287.533 371.555 283.633 375.455 283.633 380.274C283.633 385.084 287.533 388.994 292.352 388.994Z" fill="#FAFBFD"/>
<path d="M247.384 388.994H247.424C252.233 388.994 256.143 385.094 256.143 380.274C256.143 375.455 252.243 371.555 247.424 371.555H247.384C242.564 371.555 238.664 375.455 238.664 380.274C238.674 385.084 242.574 388.994 247.384 388.994Z" fill="#FAFBFD"/>
<path d="M337.329 388.994C339.629 388.994 341.869 388.064 343.499 386.444C345.119 384.824 346.049 382.574 346.049 380.274C346.049 377.974 345.119 375.734 343.499 374.105C341.879 372.485 339.629 371.555 337.329 371.555C335.029 371.555 332.789 372.485 331.159 374.105C329.539 375.724 328.609 377.974 328.609 380.274C328.609 382.574 329.539 384.814 331.159 386.444C332.789 388.064 335.029 388.994 337.329 388.994Z" fill="#FAFBFD"/>
<path d="M202.454 460.619C204.754 460.619 206.994 459.689 208.624 458.069C210.244 456.449 211.174 454.199 211.174 451.899C211.174 449.599 210.244 447.359 208.624 445.73C207.004 444.11 204.754 443.18 202.454 443.18C200.154 443.18 197.914 444.11 196.284 445.73C194.664 447.349 193.734 449.599 193.734 451.899C193.734 454.199 194.664 456.439 196.284 458.069C197.904 459.689 200.154 460.619 202.454 460.619Z" fill="#FAFBFD"/>
<path d="M292.352 460.619H292.392C297.212 460.619 301.112 456.719 301.112 451.899C301.112 447.08 297.212 443.18 292.392 443.18H292.352C287.533 443.18 283.633 447.08 283.633 451.899C283.633 456.719 287.533 460.619 292.352 460.619Z" fill="#FAFBFD"/>
<path d="M247.384 460.619H247.424C252.233 460.619 256.143 456.719 256.143 451.899C256.143 447.08 252.243 443.18 247.424 443.18H247.384C242.564 443.18 238.664 447.08 238.664 451.899C238.674 456.719 242.574 460.619 247.384 460.619Z" fill="#FAFBFD"/>
<path d="M337.329 460.619C339.629 460.619 341.869 459.689 343.499 458.069C345.119 456.449 346.049 454.199 346.049 451.899C346.049 449.599 345.119 447.359 343.499 445.73C341.879 444.11 339.629 443.18 337.329 443.18C335.029 443.18 332.789 444.11 331.159 445.73C329.539 447.349 328.609 449.599 328.609 451.899C328.609 454.199 329.539 456.439 331.159 458.069C332.789 459.689 335.029 460.619 337.329 460.619Z" fill="#FAFBFD"/>
<path d="M202.454 496.439C204.754 496.439 206.994 495.509 208.624 493.889C210.244 492.269 211.174 490.019 211.174 487.72C211.174 485.42 210.244 483.18 208.624 481.55C207.004 479.93 204.754 479 202.454 479C200.154 479 197.914 479.93 196.284 481.55C194.664 483.17 193.734 485.42 193.734 487.72C193.734 490.019 194.664 492.259 196.284 493.889C197.904 495.509 200.154 496.439 202.454 496.439Z" fill="#FAFBFD"/>
<path d="M292.352 496.439H292.392C297.212 496.439 301.112 492.539 301.112 487.72C301.112 482.9 297.212 479 292.392 479H292.352C287.533 479 283.633 482.9 283.633 487.72C283.633 492.529 287.533 496.439 292.352 496.439Z" fill="#FAFBFD"/>
<path d="M247.384 496.439H247.424C252.233 496.439 256.143 492.539 256.143 487.72C256.143 482.9 252.243 479 247.424 479H247.384C242.564 479 238.664 482.9 238.664 487.72C238.674 492.529 242.574 496.439 247.384 496.439Z" fill="#FAFBFD"/>
<path d="M337.329 496.439C339.629 496.439 341.869 495.509 343.499 493.889C345.119 492.269 346.049 490.019 346.049 487.72C346.049 485.42 345.119 483.18 343.499 481.55C341.879 479.93 339.629 479 337.329 479C335.029 479 332.789 479.93 331.159 481.55C329.539 483.17 328.609 485.42 328.609 487.72C328.609 490.019 329.539 492.259 331.159 493.889C332.789 495.509 335.029 496.439 337.329 496.439Z" fill="#FAFBFD"/>
<path d="M202.454 532.244C204.754 532.244 206.994 531.314 208.624 529.694C210.244 528.074 211.174 525.824 211.174 523.524C211.174 521.224 210.244 518.984 208.624 517.355C207.004 515.735 204.754 514.805 202.454 514.805C200.154 514.805 197.914 515.735 196.284 517.355C194.664 518.974 193.734 521.224 193.734 523.524C193.734 525.824 194.664 528.064 196.284 529.694C197.904 531.314 200.154 532.244 202.454 532.244Z" fill="#FAFBFD"/>
<path d="M292.352 532.244H292.392C297.212 532.244 301.112 528.344 301.112 523.524C301.112 518.704 297.212 514.805 292.392 514.805H292.352C287.533 514.805 283.633 518.704 283.633 523.524C283.633 528.344 287.533 532.244 292.352 532.244Z" fill="#FAFBFD"/>
<path d="M247.384 532.244H247.424C252.233 532.244 256.143 528.344 256.143 523.524C256.143 518.704 252.243 514.805 247.424 514.805H247.384C242.564 514.805 238.664 518.704 238.664 523.524C238.674 528.344 242.574 532.244 247.384 532.244Z" fill="#FAFBFD"/>
<path d="M337.329 532.244C339.629 532.244 341.869 531.314 343.499 529.694C345.119 528.074 346.049 525.824 346.049 523.524C346.049 521.224 345.119 518.984 343.499 517.355C341.879 515.735 339.629 514.805 337.329 514.805C335.029 514.805 332.789 515.735 331.159 517.355C329.539 518.974 328.609 521.224 328.609 523.524C328.609 525.824 329.539 528.064 331.159 529.694C332.789 531.314 335.029 532.244 337.329 532.244Z" fill="#FAFBFD"/>
</svg>
